PathFileType	4	(X/Y/Z)	./resultDataOpenSim/trcMotMarkerGrf/sub09/qtm-01-05.trc
DataRate	CameraRate	NumFrames	NumMarkers	Units	OrigDataRate	OrigDataStartFrame	OrigNumFrames
250.000000	250.000000	9	24	m	250.000000	175	465
Frame#	Time	L.Toe.Tip			R.Toe.Tip			L.Ankle.Lat			R.Ankle.Lat			L.Ankle.Med			R.Ankle.Med			L.Heel			R.Heel			L.Knee.Lat			R.Knee.Lat			L.Knee.Med			R.Knee.Med			L.Thigh.Upper			R.Thigh.Upper			L.ASIS			R.ASIS			V.Sacral			L.Acromium			R.Acromium			C7			L.Elbow			R.Elbow			L.Wrist.Lat			R.Wrist.Lat
		X1	Y1	Z1	X2	Y2	Z2	X3	Y3	Z3	X4	Y4	Z4	X5	Y5	Z5	X6	Y6	Z6	X7	Y7	Z7	X8	Y8	Z8	X9	Y9	Z9	X10	Y10	Z10	X11	Y11	Z11	X12	Y12	Z12	X13	Y13	Z13	X14	Y14	Z14	X15	Y15	Z15	X16	Y16	Z16	X17	Y17	Z17	X18	Y18	Z18	X19	Y19	Z19	X20	Y20	Z20	X21	Y21	Z21	X22	Y22	Z22	X23	Y23	Z23	X24	Y24	Z24

175	0.696	0.20011623	0.041236942	0.060749794	-0.56409909	0.048122523	0.09457605	0.056227838	0.072300288	0.0023011088	-0.64747273	0.16748499	0.1521218	0.063050773	0.093362426	0.099773451	-0.60068157	0.18503947	0.066935062	-0.01897234	0.036952739	0.038434263	-0.69802841	0.20182936	0.094374648	0.074091872	0.48444613	-0.050607737	-0.28270782	0.44817206	0.22904366	0.061773454	0.48835246	0.07365556	-0.2777073	0.42762162	0.10139482	-0.14211594	0.8457136	-0.1145642	-0.2257195	0.83843946	0.25192578	-0.086416135	0.93576066	-0.041739481	-0.1112876	0.92211698	0.19782319	-0.2637953	0.97618594	0.059867808	-0.10420676	1.3765602	-0.092793535	-0.13836607	1.3885936	0.23750302	-0.18675196	1.4337549	0.069468596	-0.26786814	1.0518272	-0.16552839	-0.2759159	1.0464976	0.31449579	-0.15761566	0.81323913	-0.20200437	-0.11202851	0.82820294	0.34764707
176	0.7	0.20024271	0.041027393	0.061069017	-0.56112922	0.049837139	0.095889576	0.056539299	0.072160017	0.0025351007	-0.63965749	0.17297524	0.15387559	0.063091984	0.093092636	0.1001533	-0.59199724	0.18900407	0.068779167	-0.018926799	0.036980912	0.03850175	-0.68906588	0.20871711	0.095992891	0.079143001	0.48360073	-0.050294217	-0.26990424	0.44722983	0.22961728	0.066446709	0.48745176	0.073940421	-0.26501972	0.42565305	0.1030435	-0.13444579	0.8463816	-0.11493829	-0.21845793	0.83825788	0.25159132	-0.079409344	0.93628771	-0.041871445	-0.10459951	0.92243906	0.19751249	-0.25681226	0.97706483	0.059555249	-0.097088192	1.3771116	-0.092684128	-0.1316143	1.3891707	0.23748613	-0.18000719	1.4343359	0.069647566	-0.26057875	1.052359	-0.1655796	-0.26989307	1.047561	0.31463045	-0.14941975	0.81393769	-0.20193293	-0.10704199	0.82844609	0.34788871
177	0.704	0.20034663	0.040866511	0.061310465	-0.55785695	0.051603986	0.09723279	0.056858477	0.07203594	0.0026987941	-0.63128437	0.17849974	0.15564286	0.063230461	0.092869278	0.10044365	-0.58296911	0.19277733	0.070541632	-0.018884665	0.037015396	0.038539196	-0.67964593	0.21548896	0.097505945	0.084061622	0.48279154	-0.049994327	-0.25691536	0.44638233	0.23007469	0.070716784	0.48656107	0.074181368	-0.25230043	0.42393416	0.10457859	-0.12680764	0.84703944	-0.11527148	-0.21131946	0.83817413	0.25123836	-0.072488489	0.93676124	-0.041942343	-0.09804272	0.92284167	0.19725177	-0.24986612	0.97826242	0.058880604	-0.089952568	1.3776895	-0.092574571	-0.12493278	1.3897774	0.23748226	-0.17321381	1.4349894	0.069768026	-0.25328711	1.0529364	-0.16569755	-0.26390741	1.048638	0.31482251	-0.14115393	0.81468109	-0.20182223	-0.1020613	0.8287165	0.34812418
178	0.708	0.20042155	0.040745392	0.061462321	-0.55423646	0.053448394	0.098591758	0.057183772	0.071901605	0.0028034493	-0.62247098	0.1839634	0.15736688	0.063431574	0.092697273	0.10063405	-0.57365447	0.19644128	0.07223286	-0.018852741	0.037045848	0.038537385	-0.66977981	0.22216699	0.098998638	0.088798043	0.4820869	-0.049774533	-0.24406473	0.44566633	0.23056613	0.074647612	0.48575192	0.074378247	-0.23957389	0.42249454	0.10590622	-0.11934264	0.84768744	-0.11552612	-0.20434304	0.83819132	0.25087717	-0.065670367	0.93721762	-0.041970043	-0.091601861	0.92332698	0.19704545	-0.24275789	0.97972643	0.058261993	-0.082796868	1.378297	-0.092466511	-0.11831798	1.3904157	0.23750233	-0.16630878	1.4356876	0.069599146	-0.24599681	1.0535451	-0.16587444	-0.25798122	1.0497226	0.3150648	-0.13280193	0.81547192	-0.20167063	-0.097117285	0.829008	0.34834119
179	0.712	0.20046727	0.040653425	0.061549534	-0.55019585	0.055410494	0.099975802	0.057499263	0.071752752	0.0028604062	-0.61330969	0.18927513	0.15901499	0.063645732	0.092576367	0.10074362	-0.56406443	0.20009945	0.073866822	-0.018835579	0.037064578	0.038509314	-0.65951914	0.22876611	0.10059211	0.093277055	0.48156109	-0.049687905	-0.23169395	0.44509874	0.23117462	0.078322976	0.48507826	0.074561356	-0.22686676	0.42136631	0.10700925	-0.11208519	0.84834165	-0.11570915	-0.19754929	0.83832249	0.25051952	-0.058959696	0.9376882	-0.041969442	-0.085250954	0.92389596	0.19689972	-0.23563537	0.98118641	0.057765752	-0.075635173	1.3789384	-0.092367638	-0.11177027	1.3910892	0.23753968	-0.15928213	1.4364311	0.069109118	-0.23871736	1.0541734	-0.16609245	-0.25213139	1.0508065	0.31534738	-0.12439115	0.81631882	-0.20148514	-0.092205616	0.82932804	0.34852927
180	0.716	0.20048865	0.040584434	0.061608975	-0.54559551	0.057562506	0.10142351	0.057786712	0.071603884	0.0028865087	-0.60381037	0.19438681	0.16059524	0.063841398	0.092498066	0.10080522	-0.55419514	0.20382719	0.0754413	-0.0188329	0.037072831	0.038477003	-0.64894283	0.23529857	0.10237558	0.09745437	0.48123448	-0.0497163	-0.2201341	0.44469626	0.23188121	0.081835015	0.48457135	0.074764677	-0.21422979	0.42056256	0.107899	-0.10500304	0.84903181	-0.11583715	-0.19093426	0.83858546	0.25017134	-0.052354723	0.93819563	-0.041949055	-0.078979465	0.92454992	0.19681958	-0.22864444	0.98244133	0.05727807	-0.068481207	1.3796159	-0.09228358	-0.10529388	1.391809	0.23759252	-0.15222302	1.4372633	0.068631738	-0.23145016	1.0548229	-0.16634075	-0.24634797	1.0518865	0.3156531	-0.11597623	0.81723153	-0.20127051	-0.087316681	0.82968521	0.34868551
181	0.72	0.20049429	0.040535798	0.061662552	-0.54022909	0.060009812	0.10299267	0.058037644	0.071471959	0.002899444	-0.59395017	0.19930472	0.1621099	0.064013043	0.092448354	0.10084802	-0.54404309	0.2076622	0.076935583	-0.018840251	0.03707849	0.038455984	-0.63813148	0.24175608	0.10435699	0.10134487	0.48103576	-0.04977895	-0.20955074	0.44448931	0.23260875	0.085230214	0.48422924	0.074988026	-0.20173154	0.42006994	0.10859833	-0.09807905	0.8497909	-0.11591403	-0.18447876	0.83898774	0.24983381	-0.045842307	0.93875476	-0.041905788	-0.072800014	0.92528695	0.19680176	-0.22180885	0.98353486	0.056746652	-0.061334352	1.3803289	-0.092210683	-0.098883653	1.3925906	0.23766934	-0.14524691	1.4382275	0.068520342	-0.22418655	1.0555057	-0.16661995	-0.24056969	1.0529717	0.31595661	-0.10758252	0.818208	-0.20102172	-0.082449132	0.83008787	0.34881104
182	0.724	0.20049181	0.040503153	0.061712112	-0.53390729	0.062848444	0.10474396	0.058252346	0.071364279	0.0029122846	-0.58373344	0.2040799	0.1635279	0.064172704	0.092411904	0.1008874	-0.53362026	0.21161662	0.078322383	-0.018853857	0.037086728	0.038449897	-0.62713688	0.24809696	0.10644716	0.1049924	0.48085099	-0.049792894	-0.19960381	0.44451211	0.23331096	0.088452998	0.48400757	0.075179696	-0.18936635	0.41987479	0.10917184	-0.091314084	0.85065402	-0.11595468	-0.17816046	0.83952425	0.24950738	-0.039403782	0.93937823	-0.041828895	-0.066724459	0.92609845	0.19683536	-0.21512779	0.98462294	0.056210633	-0.054179909	1.3810819	-0.092132902	-0.0925202	1.3934446	0.23777266	-0.13838526	1.4393138	0.068734199	-0.21691098	1.0562324	-0.16694128	-0.23472188	1.0540903	0.31623797	-0.099194164	0.81923667	-0.20072604	-0.07761178	0.83054643	0.34890407
183	0.728	0.20048305	0.040479995	0.061752297	-0.52654351	0.066103618	0.1067149	0.058429775	0.071274806	0.0029325968	-0.57320234	0.20878403	0.16480177	0.064331968	0.092376364	0.10092607	-0.52296188	0.21569294	0.079579758	-0.018874323	0.037095077	0.038454902	-0.61597708	0.254249	0.10847358	0.10841966	0.48060862	-0.04972144	-0.18937632	0.44477528	0.23400448	0.091389746	0.48383118	0.075269342	-0.17703852	0.41998668	0.1097063	-0.084705775	0.85164946	-0.11599545	-0.17195843	0.84018248	0.24919317	-0.03302801	0.94008415	-0.041711128	-0.060743951	0.92697594	0.1969101	-0.20863154	0.98581168	0.055750723	-0.047001417	1.3818898	-0.092027726	-0.086183697	1.3943783	0.23789416	-0.13157731	1.4404696	0.06897894	-0.20961021	1.0570072	-0.16731491	-0.2288095	1.0552838	0.31649908	-0.090789524	0.82031527	-0.2003734	-0.072813684	0.83107013	0.34895913
